<svg version="1.1" xmlns="http://www.w3.org/2000/svg" style="display: block;" viewBox="0 0 2048 2048" width="1024" height="1024" preserveAspectRatio="none">
<path transform="translate(0,0)" fill="rgb(38,56,184)" d="M 960.276 468.777 C 965.662 476.044 973.573 484.168 979.997 490.671 C 1084.45 596.417 1262.84 663.103 1406.96 687.739 C 1457.45 696.596 1508.63 700.96 1559.9 700.782 C 1563.98 757.305 1571.97 813.409 1574.96 870.1 C 1587.09 1100.17 1559.89 1341.67 1431.97 1539.23 C 1361.05 1648.75 1258.56 1744.32 1134.01 1788.12 C 1111.95 1795.88 1089.59 1800.85 1066.77 1805.75 C 1091.57 1740.61 1101.18 1659.59 1097.78 1590.22 C 1170.82 1571.68 1240.09 1518.4 1289.06 1463.02 C 1432 1301.38 1471.01 1073.83 1454.65 864.55 C 1453.37 848.09 1450.95 831.605 1449.92 815.094 C 1337.53 807.968 1201.53 773.44 1098.34 726.695 C 1052.77 708.095 1001.38 677.546 962.542 647.466 C 947.628 661.477 914.772 682.588 897.235 693.281 C 786.795 760.617 669.229 790.614 543.655 814.496 C 543.304 910.356 544.889 984.816 564.034 1081.07 C 602.921 1276.57 721.252 1461.84 888.761 1571.84 C 885.64 1616.69 868.56 1668.89 861.325 1713.31 C 824.908 1687.18 801.863 1672.87 766.878 1642.75 C 556.638 1461.74 448.614 1235.12 426.743 960.398 C 420.708 885.483 420.197 810.225 425.215 735.235 C 425.708 726.896 425.83 709.162 428.689 701.354 C 429.552 699.875 435.046 698.99 436.744 698.738 C 628.571 670.206 828.875 623.032 960.276 468.777 z"/>
<path transform="translate(0,0)" fill="rgb(254,122,0)" d="M 98.2044 199.869 L 603.898 199.976 L 809.139 199.977 C 842.055 199.955 884.698 198.643 916.909 199.98 L 917.034 319.278 C 745.036 321.088 572.327 318.092 400.232 319.246 C 339.338 319.655 276.82 320.193 216.017 319.138 C 217.338 443.606 216.112 570.558 216.073 695.221 L 216.062 1392.82 L 216.068 1663.94 C 216.07 1713.38 215.095 1767.19 216.533 1816.32 C 243.267 1815.62 272.008 1816.1 298.911 1816.11 L 447.559 1816.19 L 592.883 1816.27 C 619.912 1816.31 648.637 1815.92 675.56 1816.74 C 676.564 1863.07 675.441 1910.57 675.787 1957.01 C 640.316 1955.99 602.591 1956.66 566.914 1956.64 L 357.747 1956.59 L 212.222 1956.53 C 178.217 1956.31 131.439 1955.18 97.941 1957.1 C 99.157 1910.3 98.2948 1861.89 98.3288 1814.93 L 98.4125 1564 L 98.3927 945.185 L 98.4776 429.396 L 98.4108 270.188 C 98.344 248.228 99.1435 221.254 98.2044 199.869 z"/>
<path transform="translate(0,0)" fill="rgb(38,56,184)" d="M 1731.59 543.767 C 1734.91 547.208 1758.31 585.134 1762.63 592.038 C 1911.37 832.479 1946.38 1119.3 1886.96 1391.99 C 1796.7 1806.19 1432.52 2058.79 1011.25 1960.29 C 994.358 1956.11 977.534 1951.67 960.782 1946.98 C 968.278 1937.63 981.138 1925.47 989.879 1915.2 C 1013.18 1887.81 1027.69 1863.26 1044.49 1831.74 C 1182.6 1852.11 1347.45 1813.43 1467.9 1743.66 C 1618.74 1656.28 1710.83 1520.51 1756.46 1353.94 C 1811.82 1151.87 1785.55 939.94 1699.43 750.51 C 1680.96 709.886 1659.89 677.148 1638.16 639.236 C 1669.04 607.118 1701.02 576.284 1731.59 543.767 z"/>
<path transform="translate(0,0)" fill="rgb(30,30,30)" d="M 995.36 882.132 C 1016.29 916.952 1036.36 954.803 1056.15 990.451 L 1142.95 1146.35 C 1157.01 1171.83 1173.79 1205.3 1188.37 1229.46 C 1136.59 1206.16 1099 1190.88 1041.9 1182.19 L 1042.03 1460.2 C 1042.08 1598.6 1063.34 1764.17 958.142 1873.36 C 883.408 1950.93 776.125 1957.61 675.787 1957.01 C 675.441 1910.57 676.564 1863.07 675.56 1816.74 C 743.416 1818.22 802.208 1815.9 853.942 1765.25 C 948.725 1672.46 940.115 1524.58 940.03 1404.13 L 940.043 1182.08 C 906.698 1190.01 882.825 1196.64 850.697 1209.56 C 836.016 1215.47 813.177 1227.07 799.66 1231.65 C 841.494 1154.9 884.008 1078.53 927.198 1002.54 L 969.923 925.88 C 977.341 912.651 987.092 894.365 995.36 882.132 z"/>
<path transform="translate(0,0)" fill="rgb(254,122,0)" d="M 1979.87 94.2706 C 1981.08 96.9695 1969.37 151.858 1968.12 158.154 L 1921.42 388.029 L 1906.81 459.078 C 1904.33 471.01 1901.12 489.782 1897.13 500.636 C 1869.73 459.157 1841.41 424.807 1814.51 385.615 C 1792.28 411.634 1767.7 436.948 1744.28 462.079 L 1629.16 585.266 L 1569.96 648.462 C 1558.64 660.595 1541.59 679.819 1529.02 689.86 C 1517.44 689.974 1495.01 687.498 1483.38 686.244 C 1447.61 682.561 1412.03 677.222 1376.76 670.245 C 1369.39 668.983 1361.6 667.164 1354.25 665.576 C 1361.62 655.814 1379.35 638.637 1388.44 629.228 C 1408.02 608.895 1427.43 588.406 1446.68 567.763 L 1704.79 291.641 C 1698.57 287.966 1692.53 283.535 1686.79 279.154 C 1655.21 255.046 1621.8 233.006 1590.14 209.125 L 1878.46 124.112 C 1912.35 114.238 1945.8 103.778 1979.87 94.2706 z"/>
<path transform="translate(0,0)" fill="rgb(30,30,30)" d="M 994.062 199.824 C 1003.72 201.383 1026.19 201.789 1037.03 202.436 C 1058.81 203.667 1080.52 205.971 1102.07 209.339 C 1221.32 227.499 1329.98 267.989 1429.67 336.66 C 1445.83 347.752 1461.57 359.431 1476.87 371.673 C 1486.41 379.309 1496.01 387.909 1505.81 395.029 C 1496.47 406.597 1471.33 430.238 1459.79 441.661 C 1443.87 457.108 1428.24 474.086 1411.91 488.95 C 1402.11 477.866 1365.66 452.144 1352.85 443.565 C 1266.02 385.414 1161.4 339.47 1057.85 322.587 C 1037.01 319.189 1015.13 317.993 994.118 316.587 L 994.062 199.824 z"/>
<path transform="translate(0,0)" fill="rgb(254,122,0)" d="M 1236.75 786.727 C 1240.49 787.402 1246.51 789.247 1250.31 790.479 C 1291.58 803.825 1333.03 811.969 1376.01 818.279 C 1370.39 826.09 1361.36 834.814 1354.94 842.247 C 1338.88 860.833 1319.36 879.835 1304.01 898.803 C 1305.18 954.241 1275.95 993.419 1222.28 1007.75 C 1198.5 1010.74 1181.49 1011.9 1157.9 1002.28 C 1131.5 991.219 1110.53 970.194 1099.54 943.767 C 1078.07 891.474 1101.1 829.054 1154.21 807.47 C 1174.71 799.143 1201.31 795.983 1222.09 804.881 C 1226.24 798.858 1231.96 792.409 1236.75 786.727 z M 1204.38 952.989 C 1231.55 948.257 1249.75 922.385 1245.01 895.208 C 1240.26 868.032 1214.39 849.849 1187.21 854.6 C 1160.05 859.348 1141.88 885.211 1146.62 912.374 C 1151.36 939.536 1177.21 957.718 1204.38 952.989 z"/>
</svg>