<svg version="1.1" xmlns="http://www.w3.org/2000/svg" style="display: block;" viewBox="0 0 2048 2048" width="1024" height="1024" preserveAspectRatio="none">
<path transform="translate(0,0)" fill="rgb(41,158,254)" d="M 959.801 474.745 C 963.396 477.48 979.165 493.762 984.153 498.35 C 1000.92 513.709 1018.63 528.015 1037.16 541.187 C 1155.25 624.182 1312.14 678.925 1455.22 694.793 C 1494.62 699.164 1522.23 699.02 1561.64 699.507 C 1564.55 716.285 1566.06 736.816 1567.6 754.057 C 1570.61 786.494 1572.9 818.994 1574.48 851.533 C 1585.82 1080.08 1559.43 1313.64 1433.71 1510.34 C 1376.85 1599.29 1295.82 1686.74 1202.26 1737.92 C 1162.55 1759.64 1119.55 1773.9 1075.57 1783.74 C 1093.02 1738.84 1107.35 1628.34 1103.11 1580.24 C 1324.27 1492.61 1444.8 1238.84 1455.81 1012.55 C 1457.84 967.415 1457.83 922.212 1455.77 877.079 C 1454.88 855.487 1452.48 832.557 1452.12 811.176 C 1431.37 810.6 1399.01 806.601 1378.22 803.556 C 1275.84 788.561 1170.04 762.541 1076.31 718.338 C 1039.53 700.535 988.987 670.499 959.032 642.52 C 945.543 657.052 917.605 676.954 900.667 688.315 C 799.792 755.974 664.208 792.645 544.501 812.514 C 540.826 913.309 542.082 995.712 562.5 1094.97 C 600.673 1280.53 725.392 1466.31 885.206 1569.32 L 853.145 1707.46 C 799.735 1676.51 731.179 1616.15 688.777 1571.34 C 513.51 1386.11 433.261 1168.69 423.95 915.865 C 422.106 866.022 422.148 816.127 424.074 766.288 C 424.954 744.262 427.541 722.04 428.191 700.3 C 607.667 673.904 787.4 636.664 924.973 509.184 C 936.894 498.138 948.046 486.043 959.801 474.745 z"/>
<path transform="translate(0,0)" fill="rgb(254,124,7)" d="M 100.08 199.047 C 120.535 200.733 150.498 199.894 171.502 199.883 L 299.217 199.834 L 738.226 199.937 L 860.527 199.904 C 872.018 199.852 907.689 198.598 916.465 200.217 C 916.831 205.313 916.694 210.41 916.66 215.515 C 916.432 249.639 917.694 283.777 916.027 317.884 C 890.516 318.486 862.482 317.914 836.789 317.903 L 685.754 317.893 L 213.934 317.83 C 214.892 376.21 214.093 436.966 214.094 495.516 L 214.089 831.106 L 214.049 1815.98 L 674.367 1817 C 674.266 1862.11 673.485 1909.93 674.367 1954.81 C 669.477 1953.94 639.522 1954.61 632.342 1954.56 L 513.676 1953.87 C 376.569 1953.32 237.238 1951.72 100.198 1953.07 C 99.2819 1926.85 100.202 1897.51 100.346 1871.13 L 100.158 1766.47 L 100.165 1411 L 100.08 199.047 z"/>
<path transform="translate(0,0)" fill="rgb(41,158,254)" d="M 1731.37 547.735 C 1734.36 548.906 1736.86 553.301 1738.73 556.144 C 1895.83 796.335 1950.66 1089.26 1891.08 1370.01 C 1849.87 1564.13 1738.75 1754.26 1569.92 1863.64 C 1442.47 1947.62 1290.74 1986.93 1138.54 1975.38 C 1097.79 1972.25 1061.67 1965.79 1021.79 1957.29 C 1004.61 1952.91 980.019 1947.86 964.298 1940.98 C 987.069 1918.55 1005.39 1903.6 1024.41 1875.61 C 1033.39 1862.41 1039.32 1850.02 1047.18 1838.12 L 1047.74 1837.28 C 1066.83 1840.31 1102.07 1841.14 1121.35 1841.11 C 1251.39 1840.43 1378.51 1802.49 1487.66 1731.78 C 1523.59 1708.97 1557.09 1682.52 1587.61 1652.86 C 1677.99 1563.81 1739.48 1439.96 1765.62 1316.58 C 1781.76 1240.43 1784.79 1175.02 1781.69 1098.06 C 1775.99 956.427 1740.64 827.071 1671.44 703.172 C 1659.96 682.612 1647.54 664.111 1634.79 644.395 C 1661.82 612.485 1700.35 575.65 1731.37 547.735 z"/>
<path transform="translate(0,0)" fill="rgb(204,206,211)" d="M 804.687 1226.58 C 813.037 1206.49 837.043 1165.23 848.728 1144.19 C 873.463 1098.93 898.539 1053.85 923.954 1008.97 C 939.894 980.436 956.032 952.012 972.369 923.702 C 977.373 915.106 989.441 893.572 994.95 886.623 C 1005.51 902.14 1018.1 925.818 1027.54 942.533 C 1048.1 978.762 1068.26 1015.22 1088.01 1051.89 L 1157.04 1176.27 C 1165.88 1192.2 1176.64 1210.42 1184.93 1226.31 L 1183.65 1225.9 C 1171.31 1221.9 1158.66 1215.57 1146.12 1211.06 C 1114 1199.5 1073.89 1188.06 1039.94 1184.41 C 1040.06 1289.2 1040.85 1393.99 1042.3 1498.77 C 1043.3 1624.72 1061.02 1774.08 964.19 1871.62 C 898.412 1937.88 804.879 1951.19 716.233 1953.82 C 702.44 1954.23 688.035 1953.92 674.367 1954.81 C 673.485 1909.93 674.266 1862.11 674.367 1817 C 744.142 1818.59 804.15 1815.72 858.646 1764.54 C 932.035 1695.62 938.185 1579.9 939.754 1485.4 C 941.413 1385.5 937.962 1284.16 938.805 1183.92 C 910.3 1189.86 888.059 1194.29 860.282 1204.15 C 840.965 1211.02 823.095 1219.73 804.687 1226.58 z"/>
<path transform="translate(0,0)" fill="rgb(254,124,7)" d="M 1980.82 95.2234 L 1981.45 95.6666 C 1982.64 99.2604 1978.16 116.509 1977.14 121.39 L 1960.34 202.733 C 1939.49 304.709 1918.11 406.578 1896.22 508.336 C 1887.73 497.816 1875.08 477.88 1866.77 465.834 L 1812.71 388.604 C 1792.57 409.281 1768.71 436.96 1748.73 458.842 L 1608.15 611.646 C 1589.13 631.982 1553.64 672.194 1534.45 688.922 C 1490.65 689.476 1423.16 679.72 1379.98 672.301 C 1371.84 670.965 1362.9 669 1354.74 667.392 C 1388.6 628.995 1428.04 589.665 1463.22 551.538 L 1703.1 290.837 C 1692.96 284.356 1679.36 272.63 1669.12 265.051 C 1642.28 245.189 1615.73 223.564 1588.63 204.125 C 1601.95 198.757 1634.34 190.943 1649.47 186.812 L 1763.71 155.492 L 1889.76 120.35 C 1918.26 112.213 1952.12 102.079 1980.82 95.2234 z"/>
<path transform="translate(0,0)" fill="rgb(204,206,211)" d="M 994.144 200.972 C 1028.72 202.467 1065.08 204.86 1099.35 209.922 C 1249.5 232.026 1390.13 296.835 1504.48 396.625 C 1495.41 407.329 1470.71 430.771 1459.82 441.636 L 1414.14 487.09 C 1404.13 480.795 1393.87 470.77 1383.98 463.652 C 1292.35 397.704 1185.79 346.755 1074.26 326.344 C 1046.71 321.302 1021.98 320.588 994.473 318.303 C 993.355 281.311 993.894 238.189 994.144 200.972 z"/>
<path transform="translate(0,0)" fill="rgb(254,124,7)" d="M 1234.67 787.786 C 1241.18 787.792 1263.35 792.966 1271.22 794.675 C 1295.95 800.231 1320.73 805.573 1345.55 810.699 C 1357.75 813.312 1372.71 817.226 1384.71 818.496 C 1356.68 847.129 1328.92 876.032 1301.45 905.201 C 1300.46 951.492 1276.06 984.423 1233.5 1002.08 C 1214.25 1007.56 1198.4 1010.06 1178.4 1006.54 C 1120.52 996.353 1083.33 940.454 1093.89 883.245 C 1099.03 855.948 1114.95 831.875 1138.07 816.469 C 1164.35 798.787 1189.29 797.609 1219.06 803.271 L 1234.67 787.786 z M 1205.51 952.005 C 1231.3 947.056 1248.23 922.185 1243.38 896.377 C 1238.53 870.569 1213.72 853.541 1187.9 858.292 C 1161.93 863.069 1144.79 888.039 1149.67 913.987 C 1154.54 939.936 1179.58 956.98 1205.51 952.005 z"/>
</svg>